<svg width="166" height="127" viewBox="0 0 166 127" fill="none" xmlns="http://www.w3.org/2000/svg">
<path d="M50.3335 45.7865L67.1095 29.0104C66.8179 28.5365 66.5106 28.0781 66.1929 27.625L49.0054 44.8125L50.3335 45.7865Z" fill="#B8CE29"/>
<path d="M47.4894 43.7083L65.0675 26.1249C64.729 25.703 64.3748 25.2968 64.005 24.8958L46.1665 42.7395L47.4894 43.7083Z" fill="#B8CE29"/>
<path d="M44.8335 36.5313L60.0366 21.3282C59.5939 21.0001 59.1408 20.6824 58.6825 20.3855L44.8335 34.2345V36.5313Z" fill="#B8CE29"/>
<path d="M44.8335 31.6094L57.047 19.401C56.547 19.125 56.0418 18.8698 55.5262 18.625L44.8335 29.3125V31.6094Z" fill="#B8CE29"/>
<path d="M44.8335 26.6926L53.6929 17.8333C53.1356 17.6145 52.5627 17.4218 51.9897 17.2395L44.8335 24.3958V26.6926Z" fill="#B8CE29"/>
<path d="M44.8335 21.7708L49.922 16.677C49.2866 16.5364 48.6408 16.4218 47.9897 16.3176L44.8335 19.4791V21.7708Z" fill="#B8CE29"/>
<path d="M44.8335 41.448L62.7085 23.573C62.3179 23.198 61.9168 22.8282 61.5054 22.4792L44.8335 39.1511V41.448Z" fill="#B8CE29"/>
<path d="M45.62 16.0626C45.3595 16.047 45.0991 16.0365 44.8335 16.0261V16.8542L45.62 16.0626Z" fill="#B8CE29"/>
<path d="M53.1772 47.8647L68.8075 32.2345C68.5731 31.7084 68.3283 31.1876 68.0627 30.6824L51.8491 46.8959L53.1772 47.8647Z" fill="#B8CE29"/>
<path d="M58.8644 52.0155L70.9425 39.9426C70.8592 39.276 70.7603 38.6145 70.63 37.9583L57.5415 51.0468L58.8644 52.0155Z" fill="#B8CE29"/>
<path d="M56.021 49.9376L70.1147 35.849C69.9481 35.2605 69.7658 34.6772 69.5627 34.1042L54.6929 48.974L56.021 49.9376Z" fill="#B8CE29"/>
<path d="M64.5519 56.1771L70.1457 50.5781C70.4165 49.6198 70.6353 48.6406 70.7967 47.6406L63.229 55.2083L64.5519 56.1771Z" fill="#B8CE29"/>
<path d="M61.7085 54.099L71.1095 44.698C71.1304 44.224 71.146 43.7501 71.146 43.2657C71.146 42.9688 71.1356 42.6772 71.1252 42.3855L60.3804 53.1303L61.7085 54.099Z" fill="#B8CE29"/>
<path d="M66.8853 57.8751C67.5259 56.8751 68.104 55.8282 68.6092 54.7449L66.0728 57.2813L66.8853 57.8751Z" fill="#B8CE29"/>
<mask id="mask0_778_67" style="mask-type:luminance" maskUnits="userSpaceOnUse" x="0" y="0" width="166" height="127">
<path d="M0.875 0.432373H165.464V126.12H0.875V0.432373Z" fill="white"/>
</mask>
<g mask="url(#mask0_778_67)">
<path d="M155.75 126.068H10.3856C5.31787 126.068 1.19287 121.938 1.19287 116.87V9.55216C1.19287 4.48446 5.31787 0.354248 10.3856 0.354248H155.75C160.823 0.354248 164.948 4.48446 164.948 9.55216V116.87C164.948 121.938 160.823 126.068 155.75 126.068ZM10.3856 4.03654C7.34391 4.03654 4.86995 6.5105 4.86995 9.55216V116.87C4.86995 119.912 7.34391 122.391 10.3856 122.391H155.75C158.792 122.391 161.271 119.912 161.271 116.87V9.55216C161.271 6.5105 158.792 4.03654 155.75 4.03654H10.3856Z" fill="#B8CE29"/>
</g>
<path d="M94.9375 36.5676H102V59.677H94.9375V36.5676Z" fill="#B8CE29"/>
<path d="M105.896 38.4949H112.953V59.6772H105.896V38.4949Z" fill="#B8CE29"/>
<path d="M116.849 42.3489H123.906V59.677H116.849V42.3489Z" fill="#B8CE29"/>
<path d="M127.802 32.7136H134.865V59.6772H127.802V32.7136Z" fill="#B8CE29"/>
<path d="M138.76 32.7136H145.818V59.6772H138.76V32.7136Z" fill="#B8CE29"/>
<path d="M145.463 75.5051L108.39 93.7239L94.9009 85.5572L70.5623 96.6145L31.1353 100.094L15.604 111.13H145.354L145.463 75.5051Z" fill="#B8CE29"/>
<path d="M43.8333 70.4636C28.7969 70.4636 16.5625 58.2345 16.5625 43.1928C16.5625 28.5001 28.2448 16.4845 42.8073 15.948V42.9272H42.8229L65.6146 59.5834C60.6354 66.1876 52.724 70.4636 43.8333 70.4636Z" fill="#B8CE29"/>
</svg>
