<svg width="127" height="126" viewBox="0 0 127 126" fill="none" xmlns="http://www.w3.org/2000/svg">
<mask id="mask0_778_68" style="mask-type:luminance" maskUnits="userSpaceOnUse" x="0" y="0" width="127" height="126">
<path d="M0 0H126.677V125.688H0V0Z" fill="white"/>
</mask>
<g mask="url(#mask0_778_68)">
<path fill-rule="evenodd" clip-rule="evenodd" d="M12.922 0.010498H83.8179C90.9325 0.010498 96.7554 5.82821 96.7554 12.948V43.6095L70.3595 75.5938L58.3908 63.6303C53.4637 58.698 45.4429 58.698 40.5106 63.6303L37.4793 66.6563C32.5522 71.5886 32.5522 79.6095 37.4793 84.5418L62.62 109.682C65.1825 112.245 68.5522 113.542 72.1616 113.37C75.7866 113.193 79.0054 111.589 81.3075 108.787L96.7658 90.0678V112.823C96.7658 119.938 90.9429 125.761 83.8283 125.761H12.9272C5.81787 125.761 -0.0102539 119.943 -0.0102539 112.823V12.948C-0.0102539 5.83342 5.81266 0.010498 12.9272 0.010498H12.922ZM70.7918 84.7761L111.516 35.448C113.776 32.698 117.865 32.3126 120.604 34.573L123.912 37.3022C126.656 39.5626 127.047 43.6511 124.787 46.3907L76.5366 104.839C75.3335 106.292 73.745 107.094 71.8595 107.177C69.9741 107.271 68.3179 106.625 66.9793 105.292L41.8439 80.1511C39.3231 77.6355 39.3231 73.5365 41.8439 71.0105L44.87 67.9845C47.3908 65.4636 51.4897 65.4636 54.0054 67.9845L70.7814 84.7605L70.7918 84.7761ZM21.0054 27.9376C19.3022 27.9376 17.9168 26.5522 17.9168 24.849C17.9168 23.1407 19.3022 21.7553 21.0054 21.7553H75.7293C77.4377 21.7553 78.8231 23.1407 78.8231 24.849C78.8231 26.5522 77.4377 27.9376 75.7293 27.9376H21.0054ZM21.0054 48.3803C19.3022 48.3803 17.9168 46.9949 17.9168 45.2865C17.9168 43.5782 19.3022 42.1928 21.0054 42.1928H75.7293C77.4377 42.1928 78.8231 43.5782 78.8231 45.2865C78.8231 46.9949 77.4377 48.3803 75.7293 48.3803H21.0054Z" fill="#28ADF7"/>
</g>
</svg>
