<svg width="146" height="127" viewBox="0 0 146 127" fill="none" xmlns="http://www.w3.org/2000/svg">
<mask id="mask0_778_69" style="mask-type:luminance" maskUnits="userSpaceOnUse" x="68" y="41" width="78" height="79">
<path d="M68.125 41.4937H145.635V119.124H68.125V41.4937Z" fill="white"/>
</mask>
<g mask="url(#mask0_778_69)">
<path d="M107.917 66.7853C115.385 67.3218 121.005 73.8166 120.463 81.2853C119.927 88.7541 113.437 94.3739 105.963 93.8374C98.4946 93.2958 92.8749 86.8062 93.4165 79.3322C93.953 71.8635 100.448 66.2437 107.917 66.7853ZM70.8071 82.9833L77.2811 84.8478C78.5155 85.202 79.4842 86.176 79.8071 87.4208C80.1144 88.5926 80.4946 89.7385 80.9478 90.8478C81.4321 92.0406 81.2394 93.4051 80.4634 94.4312L76.3905 99.7853C75.3384 101.171 75.4009 103.098 76.5363 104.41L78.7238 106.942C79.8592 108.254 81.7603 108.593 83.2811 107.749L89.1665 104.488C90.2915 103.863 91.6665 103.869 92.7811 104.52C93.8176 105.129 94.8957 105.671 96.0103 106.145C97.1926 106.645 98.0155 107.744 98.1926 109.015L99.1092 115.686C99.3436 117.405 100.75 118.728 102.479 118.853L105.823 119.093C107.552 119.218 109.135 118.113 109.614 116.447L111.479 109.973C111.833 108.738 112.807 107.77 114.047 107.442C115.224 107.134 116.364 106.754 117.479 106.301C118.672 105.817 120.036 106.009 121.062 106.791L126.417 110.858C127.797 111.91 129.729 111.853 131.042 110.712L133.568 108.525C134.885 107.39 135.219 105.488 134.38 103.968L131.12 98.0874C130.495 96.9572 130.5 95.5822 131.151 94.4676C131.755 93.4364 132.302 92.3583 132.771 91.2385C133.271 90.0562 134.37 89.2333 135.64 89.0614L142.318 88.1447C144.036 87.9103 145.354 86.4989 145.479 84.7697L145.724 81.4312C145.849 79.6968 144.745 78.1135 143.073 77.6343L136.604 75.7697C135.37 75.4155 134.401 74.4468 134.073 73.202C133.765 72.0301 133.385 70.8843 132.932 69.7697C132.448 68.577 132.64 67.2176 133.417 66.1916L137.489 60.8374C138.542 59.452 138.479 57.5197 137.344 56.2072L135.156 53.6812C134.021 52.3687 132.12 52.0301 130.599 52.8739L124.713 56.1343C123.588 56.7593 122.213 56.7541 121.099 56.0978C120.062 55.4937 118.984 54.952 117.87 54.478C116.687 53.978 115.864 52.8791 115.687 51.6083L114.776 44.9364C114.536 43.2124 113.13 41.8947 111.401 41.7697L108.057 41.5301C106.328 41.4051 104.745 42.5093 104.265 44.176L102.401 50.6499C102.047 51.8843 101.073 52.853 99.8332 53.176C98.6561 53.4833 97.5103 53.8687 96.4009 54.3166C95.2082 54.8062 93.8436 54.6135 92.8176 53.8322L87.4634 49.7593C86.0832 48.7072 84.1509 48.7697 82.8384 49.9051L80.3124 52.0926C78.9946 53.2333 78.6613 55.1343 79.4999 56.6551L82.7603 62.5353C83.3853 63.6603 83.3801 65.0405 82.729 66.1499C82.1249 67.1864 81.5832 68.2645 81.1092 69.3843C80.6092 70.5666 79.5103 71.3895 78.2394 71.5614L71.5624 72.478C69.8436 72.7124 68.5259 74.1187 68.4009 75.853L68.1561 79.1916C68.0311 80.9208 69.1353 82.5041 70.8071 82.9833Z" fill="#C4DF16"/>
</g>
<mask id="mask1_778_69" style="mask-type:luminance" maskUnits="userSpaceOnUse" x="21" y="78" width="50" height="49">
<path d="M21.6562 78.6812H70.0938V126.764H21.6562V78.6812Z" fill="white"/>
</mask>
<g mask="url(#mask1_778_69)">
<path d="M49.1823 94.6291C53.7396 96.452 55.9531 101.629 54.1302 106.186C52.3073 110.744 47.1354 112.957 42.5781 111.134C38.0208 109.311 35.8021 104.134 37.625 99.577C39.4531 95.0197 44.625 92.8062 49.1823 94.6291ZM22.7812 97.3583L26.4531 99.8114C27.151 100.275 27.5625 101.077 27.5208 101.916C27.4792 102.712 27.4896 103.504 27.5521 104.285C27.6146 105.129 27.2239 105.942 26.5312 106.426L22.9219 108.957C21.9896 109.613 21.6458 110.832 22.0937 111.879L22.9583 113.89C23.4062 114.936 24.526 115.53 25.6406 115.306L29.9635 114.442C30.7917 114.275 31.651 114.551 32.2187 115.181C32.7396 115.765 33.3073 116.317 33.9114 116.837C34.5521 117.384 34.8437 118.233 34.6979 119.061L33.9427 123.416C33.75 124.535 34.3646 125.64 35.4219 126.061L37.4583 126.874C38.5156 127.301 39.7239 126.926 40.3542 125.978L42.8073 122.306C43.276 121.608 44.0729 121.197 44.9167 121.238C45.7083 121.28 46.5 121.27 47.2864 121.212C48.125 121.145 48.9375 121.535 49.4219 122.228L51.9583 125.837C52.6094 126.77 53.8281 127.113 54.875 126.666L56.8906 125.806C57.9375 125.358 58.526 124.233 58.3021 123.119L57.4375 118.796C57.2708 117.968 57.5469 117.108 58.1771 116.546C58.7604 116.02 59.3177 115.452 59.8333 114.848C60.3802 114.212 61.2292 113.916 62.0625 114.061L66.4114 114.817C67.5312 115.015 68.6354 114.395 69.0573 113.343L69.875 111.301C70.2969 110.249 69.9219 109.041 68.9739 108.405L65.3073 105.952C64.6042 105.488 64.1927 104.686 64.2396 103.848C64.2812 103.051 64.2708 102.259 64.2083 101.478C64.1406 100.634 64.5364 99.8218 65.2239 99.3374L68.8333 96.8062C69.7656 96.1499 70.1146 94.9312 69.6667 93.8843L68.8021 91.8739C68.3542 90.827 67.2344 90.2333 66.1146 90.4572L61.7917 91.3218C60.9635 91.4885 60.1094 91.2124 59.5417 90.5822C59.0156 89.9989 58.4531 89.4468 57.8489 88.926C57.2083 88.3791 56.9114 87.5301 57.0573 86.702L57.8177 82.353C58.0104 81.228 57.3958 80.1239 56.3385 79.702L54.3021 78.8895C53.2448 78.4624 52.0364 78.8374 51.4062 79.7853L48.9531 83.4572C48.4844 84.1551 47.6823 84.5666 46.8437 84.5249C46.0521 84.4833 45.2604 84.4937 44.4739 84.551C43.6302 84.6187 42.8177 84.228 42.3333 83.5353L39.8021 79.926C39.1458 78.9937 37.9271 78.6499 36.8802 79.0978L34.8698 79.9572C33.8229 80.4051 33.2344 81.5301 33.4583 82.6447L34.3229 86.9676C34.4844 87.7958 34.2083 88.6551 33.5781 89.2176C32.9948 89.7437 32.4427 90.3114 31.9271 90.9155C31.375 91.551 30.526 91.8478 29.6979 91.702L25.3489 90.9468C24.2292 90.7489 23.125 91.3687 22.6979 92.4208L21.8854 94.4624C21.4635 95.5145 21.8385 96.7228 22.7812 97.3583Z" fill="#C4DF16"/>
</g>
<mask id="mask2_778_69" style="mask-type:luminance" maskUnits="userSpaceOnUse" x="0" y="37" width="78" height="38">
<path d="M0 37.5459H77.1979V74.8792H0V37.5459Z" fill="white"/>
</mask>
<g mask="url(#mask2_778_69)">
<path d="M74.9738 45.4521C73.8176 45.0928 72.5884 45.7438 72.229 46.9C67.5467 62.0719 52.6926 71.6813 36.9061 69.7386C25.9634 68.4 16.5259 61.7334 11.5832 51.8896L15.4009 50.7855C16.953 50.3428 17.4374 48.3844 16.2759 47.2646L6.98424 38.3115C5.82278 37.1917 3.88528 37.7542 3.49986 39.3167L0.390489 51.8375C-0.000135953 53.4053 1.45299 54.8063 3.00507 54.3584L7.32278 53.1136C7.35403 53.223 7.3957 53.3375 7.44778 53.4417C12.9947 64.8375 23.8072 72.5563 36.3697 74.098C45.078 75.1709 53.9165 73.1136 61.2499 68.3115C68.4947 63.5719 73.8853 56.4261 76.4269 48.1969C76.7811 47.0407 76.1301 45.8115 74.9738 45.4521Z" fill="#C4DF16"/>
</g>
<path d="M77.7032 18.4676L73.6928 19.6551C67.9741 8.97281 57.4897 1.75927 45.4272 0.280099C27.6251 -1.9074 10.8022 8.91031 5.43238 25.9989C5.0678 27.1551 5.70843 28.3843 6.86468 28.7489C6.99488 28.7905 7.1303 28.8166 7.26051 28.8374C8.29176 28.9624 9.29697 28.3374 9.61989 27.3166C14.3543 12.2489 29.1876 2.71239 44.8907 4.63947C55.2293 5.9051 64.2501 11.9468 69.3803 20.9311L65.3282 22.1291C63.7813 22.5822 63.3126 24.5457 64.4793 25.6551L73.8386 34.5405C75.0053 35.6499 76.9376 35.077 77.3178 33.5093L80.3334 20.9676C80.7084 19.3999 79.2501 18.0093 77.7032 18.4676Z" fill="#C4DF16"/>
<path d="M40.3488 44.0614C36.5519 44.0562 33.479 40.9728 33.4894 37.1759C33.4946 33.3843 36.5728 30.3114 40.3696 30.3166C44.1665 30.3218 47.2394 33.3999 47.2342 37.1968C47.229 40.9937 44.1457 44.0666 40.3488 44.0614ZM58.5311 34.5457L55.1925 33.8322C54.5571 33.6968 54.0311 33.2384 53.8228 32.6239C53.6248 32.0405 53.3905 31.478 53.1248 30.9312C52.8332 30.3426 52.8853 29.6499 53.2394 29.103L55.1092 26.2489C55.5884 25.5145 55.4894 24.5405 54.8696 23.9155L53.6717 22.7176C53.0519 22.0926 52.078 21.9884 51.3384 22.4728L48.479 24.327C47.9321 24.6864 47.2394 24.7332 46.6509 24.4416C46.1092 24.1707 45.5415 23.9364 44.9634 23.7384C44.3436 23.5249 43.8905 23.0041 43.755 22.3634L43.0571 19.0249C42.8748 18.1603 42.1144 17.5457 41.2342 17.5457L39.5415 17.5405C38.6613 17.5405 37.9009 18.1551 37.7134 19.0145L37.005 22.353C36.8696 22.9937 36.4113 23.5145 35.7967 23.7228C35.2134 23.9207 34.6509 24.1551 34.104 24.4259C33.5155 24.7124 32.8228 24.6655 32.2759 24.3062L29.4217 22.4416C28.6873 21.9572 27.7134 22.0562 27.0884 22.6812L25.8905 23.8739C25.2655 24.4989 25.1613 25.4728 25.6405 26.2072L27.4998 29.0666C27.8592 29.6134 27.9061 30.3114 27.6144 30.8947C27.3436 31.4416 27.1092 32.0041 26.9113 32.5874C26.6978 33.202 26.1717 33.6551 25.5363 33.7905L22.1925 34.4937C21.3332 34.6707 20.7186 35.4312 20.7134 36.3114V38.0093C20.7134 38.8895 21.328 39.6499 22.1873 39.8322L25.5259 40.5457C26.1613 40.6759 26.6873 41.1343 26.8957 41.7541C27.0936 42.3322 27.328 42.8999 27.5988 43.4468C27.8853 44.0301 27.8384 44.728 27.479 45.2749L25.6092 48.1239C25.13 48.8634 25.229 49.8374 25.8488 50.4572L27.0467 51.6603C27.6665 52.2853 28.6405 52.3843 29.38 51.9051L32.2394 50.0457C32.7863 49.6916 33.479 49.6447 34.0675 49.9312C34.6144 50.202 35.1769 50.4364 35.7603 50.6395C36.3748 50.8478 36.828 51.3739 36.9634 52.0093L37.6665 55.353C37.8436 56.2124 38.604 56.8322 39.4842 56.8322H41.1821C42.0623 56.8374 42.8228 56.2228 43.005 55.3582L43.7134 52.0197C43.8488 51.3843 44.3071 50.8582 44.9217 50.6499C45.505 50.452 46.0728 50.2176 46.6144 49.952C47.203 49.6655 47.9009 49.7124 48.4478 50.0718L51.2967 51.9364C52.0363 52.4207 53.0103 52.3166 53.63 51.6968L54.8332 50.4989C55.453 49.8791 55.5571 48.9051 55.078 48.1655L53.2186 45.3114C52.8644 44.7645 52.8175 44.0666 53.104 43.4832C53.3748 42.9364 53.6092 42.3687 53.8123 41.7905C54.0207 41.1707 54.5467 40.7176 55.1821 40.5874L58.5259 39.8843C59.3853 39.702 59.9998 38.9416 60.005 38.0666V36.3687C60.005 35.4884 59.3905 34.728 58.5311 34.5457Z" fill="#C4DF16"/>
</svg>
