<svg width="122" height="121" viewBox="0 0 122 121" fill="none" xmlns="http://www.w3.org/2000/svg">
<mask id="mask0_779_18200" style="mask-type:luminance" maskUnits="userSpaceOnUse" x="0" y="0" width="122" height="121">
<path d="M0.864746 0.510498H121.333V120.208H0.864746V0.510498Z" fill="white"/>
</mask>
<g mask="url(#mask0_779_18200)">
<path d="M118.359 17.3959L116.724 16.1251C113.635 13.5834 108.917 14.1303 106.375 17.2188L90.2135 37.3751V23.7553C90.2135 20.1199 87.3073 17.2188 83.6719 17.2188H69.5104V13.0417C69.5104 11.948 68.7865 11.224 67.6927 11.224H61.5208V9.77092C61.5208 4.68758 57.3438 0.510498 52.2604 0.510498H39.1823C34.099 0.510498 29.9219 4.68758 29.9219 9.77092V11.0417H23.75C22.6615 11.0417 21.9323 11.7709 21.9323 12.8595V17.2188H7.77083C4.13542 17.2188 1.23438 20.1199 1.23438 23.7553V113.641C1.23438 117.271 4.13542 120.177 7.77083 120.177H83.6719C87.3073 120.177 90.2135 117.271 90.2135 113.641V101.474L94.9323 96.7553C95.6615 96.0261 95.6615 94.9376 94.9323 94.2136L91.3021 90.2136C93.1198 87.3126 94.3906 84.224 95.1146 80.9532L100.562 80.5938C101.469 80.5938 102.198 79.6824 102.198 78.7761V71.1511C102.198 70.2397 101.469 69.3334 100.562 69.3334L95.1146 68.9688C94.3906 66.0626 93.2969 63.5209 92.2083 61.5261L119.448 27.3855C121.99 24.6615 121.448 19.9376 118.359 17.3959ZM85.8542 63.8855L78.4062 57.8907L103.286 26.8386L110.729 32.8334L85.8542 63.8855ZM80.9531 75.323C80.9531 82.5886 74.9583 88.5834 67.6927 88.5834C60.4323 88.5834 54.4375 82.5886 54.4375 75.323C54.4375 68.0626 60.4323 62.0678 67.6927 62.0678C69.1458 62.0678 70.4167 62.2501 71.8698 62.797L63.1562 82.047C62.7917 82.7709 62.974 83.6772 63.6979 84.224C64.4271 84.7657 65.3333 84.7657 65.8802 84.224L80.7708 72.9636C80.9531 73.6928 80.9531 74.4167 80.9531 75.323ZM69.3281 76.7761L75.8646 62.4324L76.4115 61.1615L83.1302 66.4272L69.3281 76.7761ZM33.375 9.77092C33.375 6.68237 35.9167 4.14071 39.0052 4.14071H52.0781C55.1667 4.14071 57.7083 6.68237 57.7083 9.77092V11.0417H33.375V9.77092ZM31.5573 14.8542H65.8802C65.8802 18.6667 65.8802 21.0313 65.8802 24.6615H25.5677C25.5677 21.0313 25.5677 18.6667 25.5677 14.8542H31.5573ZM83.6719 116.729H7.77083C6.13542 116.729 4.86458 115.458 4.86458 113.823V23.9376C4.86458 22.3022 6.13542 21.0313 7.77083 21.0313H21.9323V26.297C21.9323 27.3855 22.6615 28.1095 23.75 28.1095H67.6927C68.7865 28.1095 69.5104 27.3855 69.5104 26.297V21.0313H83.6719C85.3073 21.0313 86.5781 22.3022 86.5781 23.9376V42.0938L80.0417 50.2657C78.0469 49.3595 75.8646 48.448 73.6875 48.0886L73.3229 42.6407C73.3229 41.7292 72.4167 41.0053 71.5104 41.0053H63.8802C62.974 41.0053 62.0625 41.7292 62.0625 42.6407L61.7031 48.0886C58.4323 48.8126 55.3438 50.0834 52.4427 51.9011L48.2656 48.2709C47.5365 47.724 46.4479 47.724 45.724 48.2709L40.276 53.7136C39.5469 54.4428 39.5469 55.5313 40.276 56.2605L43.9062 60.2553C42.0885 62.9793 40.8177 66.2449 40.0938 69.5157L34.6458 69.8803C33.7344 69.8803 33.0104 70.7865 33.0104 71.6928V79.323C33.0104 80.2292 33.7344 81.1355 34.6458 81.1355L40.0938 81.5001C40.8177 84.7657 42.0885 87.8542 43.9062 90.7605L40.276 94.7553C39.5469 95.4845 39.7292 96.573 40.276 97.297L45.724 102.563C46.4479 103.292 47.5365 103.292 48.2656 102.563L52.4427 98.9324C55.3438 100.75 58.4323 102.021 61.7031 102.745L62.0625 108.193C62.0625 109.099 62.974 109.828 63.8802 109.828H71.5104C72.4167 109.828 73.3229 109.099 73.3229 108.193L73.6875 102.745C76.9531 102.021 80.224 100.75 82.9479 98.9324L86.5781 102.203V114.005C86.5781 115.458 85.125 116.729 83.6719 116.729ZM91.8438 71.3282C92.026 72.2397 92.7552 72.7813 93.4792 72.7813L98.5625 73.1459V77.323L93.4792 77.6876C92.5729 77.6876 92.026 78.4115 91.8438 79.1407C91.3021 82.9532 89.849 86.4011 87.4896 89.4897C86.9427 90.2136 86.9427 91.1251 87.6719 91.849L91.1198 95.6615L88.0312 98.5678L84.2188 95.1199C83.6719 94.573 82.5833 94.573 82.0417 94.9376C78.9531 97.1147 75.5052 98.5678 71.6875 99.1147C70.7812 99.297 70.2344 100.021 70.2344 100.75L69.875 105.833H65.6979L65.3333 100.75C65.3333 99.8386 64.6094 99.1147 63.8802 99.1147C60.0677 98.5678 56.6198 97.1147 53.5312 94.9376C52.8021 94.3907 51.8958 94.573 51.349 95.1199L47.1771 98.5678L44.2708 95.6615L47.7188 91.849C48.2656 91.1251 48.2656 90.2136 47.901 89.672C45.724 86.5834 44.2708 83.1355 43.5417 79.323C43.3594 78.4115 42.6354 77.8699 41.9062 77.8699L36.8229 77.5053V73.1459L41.9062 72.7813C42.8177 72.7813 43.3594 72.0574 43.5417 71.3282C44.0885 67.5157 45.724 64.0678 47.901 60.9792C48.4479 60.2553 48.4479 59.3438 47.7188 58.6199L44.2708 54.9897L47.1771 52.0834L50.9896 55.5313C51.7135 56.0782 52.6198 56.0782 53.1667 55.7136C56.2552 53.5365 59.7031 52.0834 63.5156 51.5365C64.4271 51.3542 64.9688 50.6303 64.9688 49.9011L65.3333 44.8178H69.5104L69.875 49.9011C69.875 50.8126 70.599 51.5365 71.3281 51.5365C73.5052 51.9011 75.5052 52.4428 77.3177 53.3542L74.0521 57.5313L73.8698 57.8907L73.1406 59.7084C71.3281 59.1615 69.5104 58.8022 67.5104 58.8022C58.25 58.8022 50.625 66.4272 50.625 75.6876C50.625 84.948 58.25 92.5782 67.5104 92.5782C76.776 92.5782 84.401 84.948 84.401 75.6876C84.401 74.0522 84.2188 72.422 83.6719 70.7865L86.9427 68.2449L87.125 68.0626C87.125 68.0626 87.3073 68.0626 87.3073 67.8803L89.4844 65.1563C90.5729 66.7917 91.4844 68.9688 91.8438 71.3282ZM116.542 25.5678L112.911 30.1095L105.464 24.1147L109.099 19.5782C110.37 17.9428 112.911 17.7605 114.365 19.0313L116 20.3022C117.63 21.573 117.995 23.9376 116.542 25.5678Z" fill="#28ADF7"/>
</g>
<path d="M18.1198 54.0782C18.4844 54.4427 18.8437 54.8073 19.3906 54.8073C19.5729 54.8073 19.5729 54.8073 19.7552 54.8073C20.1198 54.8073 20.6615 54.625 20.8438 54.4427L37.5521 40.8229C38.276 40.2761 38.4583 39.0052 37.7344 38.2813C37.1875 37.5521 35.9167 37.375 35.1875 38.099L19.9375 50.448L15.7604 43.9115C15.2135 43 14.125 42.8229 13.2187 43.3646C12.3073 43.9115 12.125 45 12.6719 45.9063L18.1198 54.0782Z" fill="#28ADF7"/>
<path d="M29.7394 60.6145H10.3123C9.2238 60.6145 8.49463 61.3437 8.49463 62.4322C8.49463 63.5208 9.2238 64.2499 10.3123 64.2499H29.7394C30.8332 64.2499 31.5571 63.5208 31.5571 62.4322C31.5571 61.3437 30.6509 60.6145 29.7394 60.6145Z" fill="#28ADF7"/>
<path d="M10.3123 75.6876H26.6561C27.7446 75.6876 28.4686 74.9636 28.4686 73.8751C28.4686 72.7813 27.7446 72.0574 26.6561 72.0574H10.3123C9.2238 72.0574 8.49463 72.7813 8.49463 73.8751C8.49463 74.9636 9.2238 75.6876 10.3123 75.6876Z" fill="#28ADF7"/>
<path d="M29.7394 83.4949H10.3123C9.2238 83.4949 8.49463 84.224 8.49463 85.3126C8.49463 86.4011 9.2238 87.1303 10.3123 87.1303H29.7394C30.8332 87.1303 31.5571 86.4011 31.5571 85.3126C31.5571 84.224 30.6509 83.4949 29.7394 83.4949Z" fill="#28ADF7"/>
<path d="M29.7394 94.9375H10.3123C9.2238 94.9375 8.49463 95.6615 8.49463 96.7552C8.49463 97.8437 9.2238 98.5677 10.3123 98.5677H29.7394C30.8332 98.5677 31.5571 97.8437 31.5571 96.7552C31.5571 95.6615 30.6509 94.9375 29.7394 94.9375Z" fill="#28ADF7"/>
<path d="M29.7394 106.38H10.3123C9.2238 106.38 8.49463 107.104 8.49463 108.193C8.49463 109.281 9.2238 110.01 10.3123 110.01H29.7394C30.8332 110.01 31.5571 109.281 31.5571 108.193C31.5571 107.104 30.6509 106.38 29.7394 106.38Z" fill="#28ADF7"/>
</svg>
