<svg width="2832" height="1271" viewBox="0 0 2832 1271" fill="none" xmlns="http://www.w3.org/2000/svg">
<g filter="url(#filter0_d_90_2)">
<path d="M2463.45 652.14L2463.45 781.977L2626.43 781.977L2789.35 591.048L2640.95 454.5L949.922 454.5C949.922 454.5 962.37 484.513 962.37 591.048C962.37 697.583 935.403 781.977 935.403 781.977L1591.53 781.977L1713.76 652.141L1811.55 781.977L1941.93 781.977L1941.93 652.141L2031.56 652.141L2031.56 697.583L2145.65 697.583L2145.65 781.977L2341.22 781.977L2341.22 652.14L2463.45 652.14Z" fill="#50A3F0"/>
<path d="M2463.45 652.14L2463.45 781.977L2626.43 781.977L2789.35 591.048L2640.95 454.5L949.922 454.5C949.922 454.5 962.37 484.513 962.37 591.048C962.37 697.583 935.403 781.977 935.403 781.977L1591.53 781.977L1713.76 652.141L1811.55 781.977L1941.93 781.977L1941.93 652.141L2031.56 652.141L2031.56 697.583L2145.65 697.583L2145.65 781.977L2341.22 781.977L2341.22 652.14L2463.45 652.14Z" stroke="#00B7FF" stroke-width="9"/>
</g>
<g filter="url(#filter1_d_90_2)">
<path d="M271.874 309.103L309.453 271.478C304.799 96.3514 310.915 93.6962 328.845 86.1063L445.5 38.6857L456.553 35.1764L466.182 39.1437C471.268 41.234 486.441 47.6729 589.385 157.61L643.873 157.93C765.375 32.4917 771.543 35.2191 789.177 42.5133L906.48 91.0985C924.071 98.3925 930.95 101.166 925.206 274.97L963.845 313.043C1021.11 309.473 1078.59 311.797 1135.38 319.98L1146.34 324.922L1199.93 450.296C1208.18 468.763 1211.15 475.256 1082.67 592.579L1083.16 645.65C1211.39 767.972 1209.02 773.719 1201.6 791.884L1154.2 907.875C1146.78 926.04 1144.15 932.458 968.693 924.362L931.284 961.694C935.938 1136.74 929.738 1139.39 911.893 1146.9L795.195 1194.4L784.016 1198.12L774.345 1194.11C769.342 1192.02 754.335 1185.84 651.267 1075.65L596.946 1075.33C475.444 1200.76 469.276 1198 451.602 1190.66L334.173 1142.11C316.206 1134.69 309.828 1132.05 315.362 958.285L276.515 920.211C219.338 923.798 161.948 921.53 105.228 913.443L94.1832 908.501L40.2672 782.326C32.7698 763.99 30.0909 757.625 158.104 640.635L157.747 587.565C29.3445 465.073 31.8882 458.865 39.1381 441.12L86.4109 325.38C93.7475 307.089 96.3339 300.712 271.874 309.103Z" fill="#C4DF16"/>
<path d="M273.65 313.693L275.058 312.283L312.637 274.658L314.002 273.29L313.951 271.358C311.621 183.68 312.01 139.637 315.139 116.571C316.706 105.021 318.884 99.4463 321.204 96.3355C323.401 93.3889 326.019 92.1894 330.574 90.261C330.582 90.2575 330.591 90.2539 330.599 90.2503L447.031 42.9211L456.353 39.9612L464.468 43.3044L464.472 43.3058L464.575 43.3484C466.479 44.1277 471.231 46.0732 488.071 61.2746C505.226 76.7597 534.653 105.744 586.1 160.685L587.423 162.098L589.358 162.11L643.847 162.43L645.769 162.441L647.105 161.061C707.934 98.2614 739.581 67.8806 758.162 54.0574C767.466 47.1349 772.933 44.8084 776.73 44.2886C780.327 43.7962 782.953 44.8088 787.455 46.6709L273.65 313.693ZM273.65 313.693L271.659 313.598C183.77 309.397 139.656 308.927 116.604 311.704C105.06 313.094 99.5519 315.231 96.5142 317.529C93.6241 319.715 92.4656 322.373 90.5874 327.055L90.5822 327.068L90.5767 327.081L43.304 442.822C41.4575 447.341 40.4636 449.978 41.0059 453.596C41.5809 457.431 44.0178 462.952 51.1551 472.339C65.401 491.075 96.5712 522.986 160.853 584.309L162.234 585.626L162.247 587.534L162.603 640.605L162.617 642.606L161.139 643.957C97.0453 702.532 66.0323 733.096 51.9212 751.238C44.8599 760.317 42.5 765.717 41.9717 769.522C41.4669 773.156 42.5076 775.914 44.4189 780.59C44.4234 780.601 44.4279 780.612 44.4325 780.623L97.6291 905.113L106.488 909.077C162.701 917.049 219.573 919.274 276.233 915.72L278.234 915.594L279.665 916.997L318.512 955.071L319.923 956.454L319.86 958.428C317.089 1045.42 317.326 1089.11 320.414 1111.98C321.96 1123.42 324.144 1128.92 326.461 1131.98C328.667 1134.89 331.302 1136.06 335.891 1137.96L335.892 1137.96L453.321 1186.5L453.327 1186.5C457.843 1188.38 460.477 1189.4 464.081 1188.91C467.881 1188.4 473.349 1186.08 482.655 1179.17C501.239 1165.36 532.885 1135 593.714 1072.2L595.051 1070.82L596.973 1070.83L651.294 1071.15L653.231 1071.16L654.554 1072.57C706.062 1127.64 735.478 1156.62 752.596 1172.08C769.283 1187.14 774.032 1189.11 775.94 1189.9C775.986 1189.92 776.031 1189.94 776.074 1189.96C776.076 1189.96 776.078 1189.96 776.079 1189.96L784.188 1193.32L793.634 1190.18L910.148 1142.75C910.156 1142.75 910.164 1142.74 910.172 1142.74C914.706 1140.83 917.31 1139.65 919.501 1136.71C921.815 1133.62 923.995 1128.05 925.567 1116.51C928.706 1093.47 929.115 1049.45 926.785 961.813L926.734 959.877L928.105 958.509L965.515 921.177L966.919 919.776L968.901 919.867C1056.75 923.92 1100.85 924.307 1123.92 921.499C1135.47 920.093 1141 917.954 1144.05 915.656C1146.96 913.469 1148.14 910.82 1150.03 906.174L1150.03 906.173L1197.43 790.182C1197.43 790.182 1197.43 790.182 1197.43 790.181C1199.33 785.544 1200.34 782.86 1199.8 779.229C1199.24 775.393 1196.81 769.903 1189.67 760.557C1175.42 741.901 1144.25 710.149 1080.05 648.906L1078.67 647.593L1078.66 645.691L1078.17 592.62L1078.16 590.611L1079.64 589.256C1143.97 530.512 1175.01 499.842 1189 481.625C1196.01 472.511 1198.25 467.107 1198.68 463.315C1199.1 459.664 1197.94 456.875 1195.82 452.131L1195.81 452.098L1195.79 452.064L1142.89 328.303L1134.11 324.344C1077.83 316.278 1020.87 313.996 964.125 317.534L962.118 317.659L960.686 316.248L922.048 278.175L920.644 276.792L920.709 274.821C923.584 187.811 923.274 144.08 920.135 121.205C918.564 109.753 916.362 104.239 914.047 101.18C911.848 98.2751 909.245 97.1167 904.758 95.256C904.757 95.2558 904.757 95.2555 904.756 95.2553L787.456 46.6716L273.65 313.693Z" stroke="#DCFB06" stroke-width="9"/>
</g>
<path d="M1388.95 341.5C1388.95 356.08 1392.19 368.95 1398.67 380.11C1405.33 391.27 1413.97 400 1424.59 406.3C1435.21 412.6 1446.73 415.75 1459.15 415.75C1468.15 415.75 1476.34 414.58 1483.72 412.24C1491.28 409.9 1498.12 406.66 1504.24 402.52C1510.36 398.2 1515.58 393.25 1519.9 387.67V417.91C1511.98 424.93 1503.34 430.15 1493.98 433.57C1484.62 436.99 1473.01 438.7 1459.15 438.7C1446.01 438.7 1433.68 436.36 1422.16 431.68C1410.82 426.82 1400.83 420.07 1392.19 411.43C1383.55 402.61 1376.8 392.26 1371.94 380.38C1367.08 368.5 1364.65 355.54 1364.65 341.5C1364.65 327.46 1367.08 314.5 1371.94 302.62C1376.8 290.74 1383.55 280.48 1392.19 271.84C1400.83 263.02 1410.82 256.27 1422.16 251.59C1433.68 246.73 1446.01 244.3 1459.15 244.3C1473.01 244.3 1484.62 246.01 1493.98 249.43C1503.34 252.85 1511.98 258.07 1519.9 265.09V295.33C1515.58 289.75 1510.36 284.89 1504.24 280.75C1498.12 276.43 1491.28 273.1 1483.72 270.76C1476.34 268.42 1468.15 267.25 1459.15 267.25C1446.73 267.25 1435.21 270.4 1424.59 276.7C1413.97 283 1405.33 291.73 1398.67 302.89C1392.19 313.87 1388.95 326.74 1388.95 341.5ZM1550.83 373.9C1550.83 361.3 1553.62 350.14 1559.2 340.42C1564.96 330.7 1572.7 323.05 1582.42 317.47C1592.14 311.89 1603.03 309.1 1615.09 309.1C1627.33 309.1 1638.22 311.89 1647.76 317.47C1657.48 323.05 1665.13 330.7 1670.71 340.42C1676.47 350.14 1679.35 361.3 1679.35 373.9C1679.35 386.32 1676.47 397.48 1670.71 407.38C1665.13 417.1 1657.48 424.75 1647.76 430.33C1638.22 435.91 1627.33 438.7 1615.09 438.7C1603.03 438.7 1592.14 435.91 1582.42 430.33C1572.7 424.75 1564.96 417.1 1559.2 407.38C1553.62 397.48 1550.83 386.32 1550.83 373.9ZM1572.7 373.9C1572.7 382.54 1574.5 390.19 1578.1 396.85C1581.88 403.51 1586.92 408.82 1593.22 412.78C1599.7 416.56 1606.99 418.45 1615.09 418.45C1623.19 418.45 1630.39 416.56 1636.69 412.78C1643.17 408.82 1648.21 403.51 1651.81 396.85C1655.59 390.19 1657.48 382.54 1657.48 373.9C1657.48 365.26 1655.59 357.61 1651.81 350.95C1648.21 344.11 1643.17 338.8 1636.69 335.02C1630.39 331.24 1623.19 329.35 1615.09 329.35C1606.99 329.35 1599.7 331.24 1593.22 335.02C1586.92 338.8 1581.88 344.11 1578.1 350.95C1574.5 357.61 1572.7 365.26 1572.7 373.9ZM1791.37 360.4C1791.37 350.14 1789.12 342.4 1784.62 337.18C1780.12 331.96 1773.55 329.35 1764.91 329.35C1758.61 329.35 1753.03 330.7 1748.17 333.4C1743.49 335.92 1739.8 339.52 1737.1 344.2C1734.58 348.88 1733.32 354.28 1733.32 360.4V436H1711.72V311.8H1733.32V331.24C1737.46 323.68 1742.59 318.1 1748.71 314.5C1755.01 310.9 1762.21 309.1 1770.31 309.1C1783.45 309.1 1793.8 313.51 1801.36 322.33C1809.1 330.97 1812.97 342.76 1812.97 357.7V436H1791.37V360.4ZM1837.38 311.8H1899.48V332.05H1837.38V311.8ZM1857.63 268.6H1879.23V436H1857.63V268.6ZM1945.44 311.8V436H1923.84V311.8H1945.44ZM1982.97 335.56C1980.09 333.4 1977.48 331.87 1975.14 330.97C1972.8 329.89 1969.83 329.35 1966.23 329.35C1960.83 329.35 1956.6 330.7 1953.54 333.4C1950.48 336.1 1948.32 339.79 1947.06 344.47C1945.98 349.15 1945.44 354.46 1945.44 360.4H1935.72C1935.72 350.5 1937.43 341.77 1940.85 334.21C1944.45 326.47 1949.04 320.35 1954.62 315.85C1960.2 311.35 1965.87 309.1 1971.63 309.1C1976.13 309.1 1980.27 309.73 1984.05 310.99C1988.01 312.07 1991.61 314.32 1994.85 317.74L1982.97 335.56ZM2004.34 373.9C2004.34 361.3 2007.13 350.14 2012.71 340.42C2018.47 330.7 2026.21 323.05 2035.93 317.47C2045.65 311.89 2056.54 309.1 2068.6 309.1C2080.84 309.1 2091.73 311.89 2101.27 317.47C2110.99 323.05 2118.64 330.7 2124.22 340.42C2129.98 350.14 2132.86 361.3 2132.86 373.9C2132.86 386.32 2129.98 397.48 2124.22 407.38C2118.64 417.1 2110.99 424.75 2101.27 430.33C2091.73 435.91 2080.84 438.7 2068.6 438.7C2056.54 438.7 2045.65 435.91 2035.93 430.33C2026.21 424.75 2018.47 417.1 2012.71 407.38C2007.13 397.48 2004.34 386.32 2004.34 373.9ZM2026.21 373.9C2026.21 382.54 2028.01 390.19 2031.61 396.85C2035.39 403.51 2040.43 408.82 2046.73 412.78C2053.21 416.56 2060.5 418.45 2068.6 418.45C2076.7 418.45 2083.9 416.56 2090.2 412.78C2096.68 408.82 2101.72 403.51 2105.32 396.85C2109.1 390.19 2110.99 382.54 2110.99 373.9C2110.99 365.26 2109.1 357.61 2105.32 350.95C2101.72 344.11 2096.68 338.8 2090.2 335.02C2083.9 331.24 2076.7 329.35 2068.6 329.35C2060.5 329.35 2053.21 331.24 2046.73 335.02C2040.43 338.8 2035.39 344.11 2031.61 350.95C2028.01 357.61 2026.21 365.26 2026.21 373.9ZM2165.23 225.4H2186.83V436H2165.23V225.4Z" fill="white"/>
<path d="M1015.45 58H1038.4V247H1015.45V58ZM1112.65 58H1141L1059.19 146.56L1145.05 247H1116.7L1031.38 147.1L1112.65 58ZM1209.35 249.7C1197.83 249.7 1187.57 247 1178.57 241.6C1169.75 236.02 1162.82 228.37 1157.78 218.65C1152.92 208.93 1150.49 197.68 1150.49 184.9C1150.49 171.94 1153.01 160.6 1158.05 150.88C1163.27 141.16 1170.47 133.6 1179.65 128.2C1189.01 122.8 1199.81 120.1 1212.05 120.1C1224.29 120.1 1234.73 122.71 1243.37 127.93C1252.19 132.97 1258.94 140.26 1263.62 149.8C1268.3 159.34 1270.64 170.68 1270.64 183.82C1270.64 185.08 1270.55 186.43 1270.37 187.87C1270.37 189.13 1270.37 189.94 1270.37 190.3H1164.26V171.94H1253.36L1244.72 184.36C1245.26 183.46 1245.8 182.11 1246.34 180.31C1246.88 178.33 1247.15 176.71 1247.15 175.45C1247.15 168.07 1245.62 161.68 1242.56 156.28C1239.68 150.88 1235.63 146.65 1230.41 143.59C1225.19 140.53 1219.07 139 1212.05 139C1203.77 139 1196.66 140.8 1190.72 144.4C1184.96 147.82 1180.46 152.86 1177.22 159.52C1174.16 166 1172.54 174.01 1172.36 183.55C1172.36 193.27 1173.89 201.55 1176.95 208.39C1180.01 215.23 1184.51 220.45 1190.45 224.05C1196.39 227.65 1203.59 229.45 1212.05 229.45C1220.51 229.45 1227.98 227.65 1234.46 224.05C1240.94 220.27 1246.43 214.6 1250.93 207.04L1268.48 218.11C1262 228.55 1253.81 236.47 1243.91 241.87C1234.19 247.09 1222.67 249.7 1209.35 249.7ZM1397.54 122.8L1316.54 306.4H1292.24L1326.26 229.45L1278.74 122.8H1304.39L1343.81 220L1334.9 218.92L1373.24 122.8H1397.54Z" fill="white"/>
<path d="M881.347 621C881.347 767.703 764.422 886.5 620.347 886.5C476.272 886.5 359.347 767.703 359.347 621C359.347 474.297 476.272 355.5 620.347 355.5C764.422 355.5 881.347 474.297 881.347 621Z" fill="white" stroke="#DCFB06" stroke-width="9"/>
<g filter="url(#filter2_d_90_2)">
<path d="M518.462 748.787L519.681 671.602L629.495 475.5L716.47 650.583L714.87 751.889L649.401 750.855C647.623 709.812 645.656 680.829 616.558 680.37C592.31 679.987 587.042 706.443 586.356 749.859L518.462 748.787Z" fill="#50A3F0"/>
</g>
<g filter="url(#filter3_d_90_2)">
<path d="M671.702 499.741L671.082 539.023L709.123 618.207L710.984 500.362L671.702 499.741Z" fill="#C4DF16"/>
</g>
<g filter="url(#filter4_i_90_2)">
<path d="M727.976 687.047L627.031 478.737C625.766 476.126 626.154 473.016 628.022 470.797C631.422 466.758 637.845 467.515 640.214 472.233L744.084 679.101C745.987 682.893 744.978 687.5 741.663 690.148C737.162 693.743 730.488 692.231 727.976 687.047Z" fill="#93A60F"/>
</g>
<path d="M527.898 484.152C521.264 488.77 508.843 587.954 499.997 666.261C497.765 686.021 524.206 693.87 533.283 676.177L636.337 475.309C636.947 474.119 637.786 473.033 638.406 471.848C647.323 454.8 538.6 476.702 527.898 484.152Z" fill="#C4DF16"/>
<defs>
<filter id="filter0_d_90_2" x="893.24" y="450" width="1938.34" height="408.477" filterUnits="userSpaceOnUse" color-interpolation-filters="sRGB">
<feFlood flood-opacity="0" result="BackgroundImageFix"/>
<feColorMatrix in="SourceAlpha" type="matrix" values="0 0 0 0 0 0 0 0 0 0 0 0 0 0 0 0 0 0 127 0" result="hardAlpha"/>
<feOffset dy="36"/>
<feGaussianBlur stdDeviation="18"/>
<feComposite in2="hardAlpha" operator="out"/>
<feColorMatrix type="matrix" values="0 0 0 0 0 0 0 0 0 0 0 0 0 0 0 0 0 0 0.25 0"/>
<feBlend mode="normal" in2="BackgroundImageFix" result="effect1_dropShadow_90_2"/>
<feBlend mode="normal" in="SourceGraphic" in2="effect1_dropShadow_90_2" result="shape"/>
</filter>
<filter id="filter1_d_90_2" x="0.360352" y="35.1763" width="1240.08" height="1234.94" filterUnits="userSpaceOnUse" color-interpolation-filters="sRGB">
<feFlood flood-opacity="0" result="BackgroundImageFix"/>
<feColorMatrix in="SourceAlpha" type="matrix" values="0 0 0 0 0 0 0 0 0 0 0 0 0 0 0 0 0 0 127 0" result="hardAlpha"/>
<feOffset dy="36"/>
<feGaussianBlur stdDeviation="18"/>
<feComposite in2="hardAlpha" operator="out"/>
<feColorMatrix type="matrix" values="0 0 0 0 0 0 0 0 0 0 0 0 0 0 0 0 0 0 0.25 0"/>
<feBlend mode="normal" in2="BackgroundImageFix" result="effect1_dropShadow_90_2"/>
<feBlend mode="normal" in="SourceGraphic" in2="effect1_dropShadow_90_2" result="shape"/>
</filter>
<filter id="filter2_d_90_2" x="482.462" y="475.5" width="270.008" height="348.388" filterUnits="userSpaceOnUse" color-interpolation-filters="sRGB">
<feFlood flood-opacity="0" result="BackgroundImageFix"/>
<feColorMatrix in="SourceAlpha" type="matrix" values="0 0 0 0 0 0 0 0 0 0 0 0 0 0 0 0 0 0 127 0" result="hardAlpha"/>
<feOffset dy="36"/>
<feGaussianBlur stdDeviation="18"/>
<feComposite in2="hardAlpha" operator="out"/>
<feColorMatrix type="matrix" values="0 0 0 0 0 0 0 0 0 0 0 0 0 0 0 0 0 0 0.25 0"/>
<feBlend mode="normal" in2="BackgroundImageFix" result="effect1_dropShadow_90_2"/>
<feBlend mode="normal" in="SourceGraphic" in2="effect1_dropShadow_90_2" result="shape"/>
</filter>
<filter id="filter3_d_90_2" x="635.082" y="499.741" width="111.902" height="190.465" filterUnits="userSpaceOnUse" color-interpolation-filters="sRGB">
<feFlood flood-opacity="0" result="BackgroundImageFix"/>
<feColorMatrix in="SourceAlpha" type="matrix" values="0 0 0 0 0 0 0 0 0 0 0 0 0 0 0 0 0 0 127 0" result="hardAlpha"/>
<feOffset dy="36"/>
<feGaussianBlur stdDeviation="18"/>
<feComposite in2="hardAlpha" operator="out"/>
<feColorMatrix type="matrix" values="0 0 0 0 0 0 0 0 0 0 0 0 0 0 0 0 0 0 0.25 0"/>
<feBlend mode="normal" in2="BackgroundImageFix" result="effect1_dropShadow_90_2"/>
<feBlend mode="normal" in="SourceGraphic" in2="effect1_dropShadow_90_2" result="shape"/>
</filter>
<filter id="filter4_i_90_2" x="626.295" y="468.18" width="118.744" height="259.934" filterUnits="userSpaceOnUse" color-interpolation-filters="sRGB">
<feFlood flood-opacity="0" result="BackgroundImageFix"/>
<feBlend mode="normal" in="SourceGraphic" in2="BackgroundImageFix" result="shape"/>
<feColorMatrix in="SourceAlpha" type="matrix" values="0 0 0 0 0 0 0 0 0 0 0 0 0 0 0 0 0 0 127 0" result="hardAlpha"/>
<feOffset dy="36"/>
<feGaussianBlur stdDeviation="18"/>
<feComposite in2="hardAlpha" operator="arithmetic" k2="-1" k3="1"/>
<feColorMatrix type="matrix" values="0 0 0 0 0 0 0 0 0 0 0 0 0 0 0 0 0 0 0.25 0"/>
<feBlend mode="normal" in2="shape" result="effect1_innerShadow_90_2"/>
</filter>
</defs>
</svg>
